<svg xmlns="http://www.w3.org/2000/svg" width="512" height="512" viewBox="0 0 64 64"><path fill="#10cb2f" d="M61 32.19A29 29 0 1132.19 3 29 29 0 0161 32.19z" data-original="#004fac"/><path fill="#10cb2f" d="M55 32.15A23 23 0 1132.15 9 23.029 23.029 0 0155 32.15z" data-original="#d1e7f8"/><path fill="#10cb2f" d="M36.955 9.54A22.846 22.846 0 0139 19.15a23 23 0 01-27.955 22.31 23 23 0 1025.91-31.92z" data-original="#bddbff"/><path fill="#fff" d="M44.629 21.041a2 2 0 00-2.828-.018l-14.825 14.63-6.031-6.111a2 2 0 00-2.828-.018l-2.847 2.809a2 2 0 00-.019 2.829l8.84 8.958a4 4 0 005.657.037l17.672-17.44a2 2 0 00.019-2.829z" data-original="#7ed63e"/></svg>