<svg width="48" height="48" xmlns="http://www.w3.org/2000/svg"><g fill="none" fill-rule="evenodd"><circle fill="#FFF" cx="24" cy="24" r="24"/><path d="M23.936 46.744c-12.58 0-22.779-10.198-22.779-22.779 0-12.58 10.199-22.779 22.78-22.779 12.58 0 22.778 10.2 22.778 22.78 0 12.58-10.199 22.778-22.779 22.778ZM0 48h48V0H0v48Z" fill="#ED1C27" fill-rule="nonzero"/><path d="M7.412 17.935c1.494 0 3.991 1 3.991 6.042 0 4.94-2.419 5.977-3.9 6.017l-.091.001H3.025s.373-2.579.373-6.018c0-3.338-.352-5.888-.373-6.035v-.007h4.387Zm32.021 0 .934 3.51.957-3.51h3.524s-1.587 2.998-2.264 6.042c-.657 2.957-.28 5.848-.258 6.011l.001.007H38.43s.397-2.95-.28-6.018c-.544-2.464-1.66-4.868-2.078-5.719v2.443c-.78-.308-1.575-.348-1.89-.35h-.131c-.01.001-.043.806-.05 1.902v.604c.003.556.014 1.157.04 1.747.021.453.05.965.081 1.49l.042.677c.102 1.585.218 3.093.227 3.216v.008h-3.873s.257-3.3.373-5.39c.112-1.998.008-4.097 0-4.245v-.008l-.232.003c-.878.027-1.457.199-1.706.29.032.21.048.438.048.683 0 2.742-2.1 3.37-2.1 3.37s.054.081.159.244l.175.274c.239.38.601.967 1.066 1.759a38.77 38.77 0 0 1 1.583 3.013l.004.007H25.64s.07-.743-.35-2.044c-.42-1.302-.98-2.045-.98-2.045s-.14.767 0 2.068c.131 1.224.346 1.935.37 2.014l.003.007h-7.445l.01-.063c.02-.167.067-.669-.01-1.493-.087-.933-.357-1.521-.393-1.596l-.004-.008h-1.867s-.257.535-.397 1.58c-.13.976-.017 1.507-.001 1.573l.001.007h-3.874s.957-3.137 1.54-6.018l.053-.263.1-.528a70.71 70.71 0 0 0 .733-5.243l.001-.008h5.555s.304 3.163.887 6.042c.39 1.932.96 3.978 1.293 5.117.116-.978.27-2.727.27-5.117 0-3.721-.33-5.91-.349-6.036v-.006h5.39c.63 0 2.114.393 2.638 2.063v-2.063h10.62ZM6.697 20.342h-.062a.608.608 0 0 0-.076.008l-.01.002v7.227s1.703.418 1.703-3.602c0-3.29-1.14-3.623-1.555-3.635Zm9.21.013-.746 4.064h1.493l-.746-4.064Zm8.409-.375h-.006v3.137s1.33 0 1.33-1.58c0-1.454-1.126-1.55-1.306-1.557h-.018Z" fill="#1D1D1B" fill-rule="nonzero"/></g></svg>