<svg xmlns="http://www.w3.org/2000/svg" width="32" height="40" fill="none" viewBox="0 0 32 40"><g fill="#fff" filter="url(#a)" style="mix-blend-mode:screen"><ellipse cx="15.6936" cy="19.7715" rx="2.21281" ry="17.7714"/><ellipse cx="1.63878" cy="15.5834" rx="1.63878" ry="15.5834" transform="matrix(-.8674 .4976 -.8674 -.4976 30.632 26.71)"/><ellipse cx="1.83397" cy="19.1512" rx="1.83397" ry="19.1512" transform="matrix(.94929 .3144 -.70937 .70483 27.538 5.696)"/></g><g fill="#fff" filter="url(#b)" style="mix-blend-mode:screen"><ellipse cx="15.6936" cy="19.7715" rx="1.30152" ry="10.4527"/><ellipse cx="0.963889" cy="9.16574" rx="0.963889" ry="9.16574" transform="matrix(-.8674 .4976 -.8674 -.4976 24.48 23.853)"/><ellipse cx="1.0787" cy="11.2643" rx="1.0787" ry="11.2643" transform="matrix(.94929 .3144 -.70937 .70483 22.66 11.493)"/></g><g fill="#fff" style="mix-blend-mode:screen"><ellipse cx="15.6937" cy="19.7714" rx="0.662551" ry="5.32105"/><ellipse cx="0.490677" cy="4.66591" rx="0.490677" ry="4.66591" transform="matrix(-.8674 .4976 -.8674 -.4976 20.166 21.849)"/><ellipse cx="0.54912" cy="5.73418" rx="0.54912" ry="5.73418" transform="matrix(.94929 .3144 -.70937 .70483 19.24 15.557)"/></g><defs><filter id="a" width="31.3959" height="39.5429" x="-0.00427246" y="3.05176e-05" color-interpolation-filters="sRGB" filterUnits="userSpaceOnUse"><feFlood flood-opacity="0" result="BackgroundImageFix"/><feBlend in="SourceGraphic" in2="BackgroundImageFix" result="shape"/><feGaussianBlur result="effect1_foregroundBlur_5_591" stdDeviation="1"/></filter><filter id="b" width="18.1136" height="22.9054" x="6.63684" y="8.31876" color-interpolation-filters="sRGB" filterUnits="userSpaceOnUse"><feFlood flood-opacity="0" result="BackgroundImageFix"/><feBlend in="SourceGraphic" in2="BackgroundImageFix" result="shape"/><feGaussianBlur result="effect1_foregroundBlur_5_591" stdDeviation="0.5"/></filter></defs></svg>